<?xml version="1.0" encoding="utf-8"?>
<!-- Generator: Adobe Illustrator 22.1.0, SVG Export Plug-In . SVG Version: 6.00 Build 0)  -->
<svg version="1.1" id="Layer_1" xmlns="http://www.w3.org/2000/svg" xmlns:xlink="http://www.w3.org/1999/xlink" x="0px" y="0px"
	 viewBox="0 0 426.7 426.7" style="enable-background:new 0 0 426.7 426.7;" xml:space="preserve">
<g>
	<path d="M109.3,36.9c25,0,50,9.1,68.8,25c19.5,16.6,30.3,38.8,30.3,62.4h10c0-23.7,10.8-45.8,30.3-62.4c18.7-15.9,43.8-25,68.7-25
		c31.7,0,60.3,14.4,80.5,40.6c11.3,14.7,18.7,31.6,22,50.1c3.2,18.4,2.3,38-2.8,58.3c-9.2,36.7-31.5,74.2-64.7,108.5
		c-17.6,18.1-38.1,35.3-61,51c-23.5,16.2-49.8,30.9-77.9,43.8c-28.2-12.9-54.4-27.6-77.9-43.8c-22.9-15.7-43.4-32.9-61-51
		c-33.2-34.3-55.6-71.8-64.7-108.5c-5.1-20.3-6-40-2.8-58.3c3.2-18.5,10.6-35.3,22-50.1C49,51.3,77.6,36.9,109.3,36.9 M109.3,31.9
		c-30.3,0-61.4,12.7-84.4,42.5c-65.6,85.2-0.9,234.5,188.5,320.3c189.4-85.8,254.1-235,188.4-320.3c-23-29.9-54.1-42.5-84.4-42.5
		c-53.3,0-104,39.1-104,92.5C213.3,71,162.6,31.9,109.3,31.9L109.3,31.9z"/>
</g>
</svg>
